<svg xmlns="http://www.w3.org/2000/svg" width="284" height="85" viewBox="0 0 284 85"><defs><mask id="un02b" width="2" height="2" x="-1" y="-1"><path fill="#fff" d="M0 0h284v83H0z"/><path d="M265.999 83.001H18a9.998 9.998 0 0 1-8.873-5.384C3.677 70.483 0 56.98 0 41.498 0 26.015 3.677 12.513 9.128 5.381A9.998 9.998 0 0 1 18 0h247.999a9.996 9.996 0 0 1 8.871 5.38C280.321 12.514 284 26.016 284 41.499c0 15.482-3.677 28.985-9.127 36.118a9.998 9.998 0 0 1-8.873 5.385z"/></mask><filter id="un02a" width="304" height="105" x="-10" y="-10" filterUnits="userSpaceOnUse"><feOffset dy="2" in="SourceGraphic" result="FeOffset1032Out"/><feGaussianBlur in="FeOffset1032Out" result="FeGaussianBlur1033Out" stdDeviation="0 0"/></filter><linearGradient id="un02c" x1="57.75" x2="219.57" y1="129.47" y2="-30.32" gradientUnits="userSpaceOnUse"><stop offset="0" stop-color="#f0bc80"/><stop offset=".51" stop-color="#ffe3a2"/><stop offset="1" stop-color="#f0bc80"/></linearGradient></defs><g><g><g filter="url(#un02a)"><path fill="none" d="M265.999 83.001H18a9.998 9.998 0 0 1-8.873-5.384C3.677 70.483 0 56.98 0 41.498 0 26.015 3.677 12.513 9.128 5.381A9.998 9.998 0 0 1 18 0h247.999a9.996 9.996 0 0 1 8.871 5.38C280.321 12.514 284 26.016 284 41.499c0 15.482-3.677 28.985-9.127 36.118a9.998 9.998 0 0 1-8.873 5.385z" mask="url(&quot;#un02b&quot;)"/><path fill="#ffe3a2" d="M265.999 83.001H18a9.998 9.998 0 0 1-8.873-5.384C3.677 70.483 0 56.98 0 41.498 0 26.015 3.677 12.513 9.128 5.381A9.998 9.998 0 0 1 18 0h247.999a9.996 9.996 0 0 1 8.871 5.38C280.321 12.514 284 26.016 284 41.499c0 15.482-3.677 28.985-9.127 36.118a9.998 9.998 0 0 1-8.873 5.385z"/></g><path fill="url(#un02c)" d="M265.999 83.001H18a9.998 9.998 0 0 1-8.873-5.384C3.677 70.483 0 56.98 0 41.498 0 26.015 3.677 12.513 9.128 5.381A9.998 9.998 0 0 1 18 0h247.999a9.996 9.996 0 0 1 8.871 5.38C280.321 12.514 284 26.016 284 41.499c0 15.482-3.677 28.985-9.127 36.118a9.998 9.998 0 0 1-8.873 5.385z"/></g></g></svg>