<svg xmlns="http://www.w3.org/2000/svg" width="23.923" height="23.869" viewBox="0 0 23.923 23.869"><g transform="translate(0 -0.394)"><g transform="translate(0 0.394)"><g transform="translate(0 0)"><path d="M23.386,19.273l-3.695-3.695a1.926,1.926,0,0,0-2.716.051L15.114,17.49l-.367-.2a18.523,18.523,0,0,1-4.477-3.238A18.626,18.626,0,0,1,7.026,9.562c-.069-.125-.135-.245-.2-.359L8.075,7.956l.614-.615a1.925,1.925,0,0,0,.05-2.716L5.044.93A1.924,1.924,0,0,0,2.328.981L1.286,2.028l.028.028A6.021,6.021,0,0,0,.457,3.57,6.275,6.275,0,0,0,.075,5.1c-.488,4.044,1.36,7.741,6.376,12.756,6.933,6.933,12.52,6.409,12.761,6.383a6.242,6.242,0,0,0,1.539-.387A6,6,0,0,0,22.26,23l.023.02,1.055-1.033A1.928,1.928,0,0,0,23.386,19.273Z" transform="translate(0 -0.394)" fill="#deb880"/></g></g></g></svg>