<svg xmlns="http://www.w3.org/2000/svg" width="29.448" height="23.04" viewBox="0 0 29.448 23.04"><g transform="translate(0.001 -66.585)"><path d="M24.843,79.622l4.534,9.315a.442.442,0,0,1-.431.689H.5a.442.442,0,0,1-.431-.689L4.6,79.622a.525.525,0,0,1,.431-.269H8.922a.544.544,0,0,1,.36.166c.264.3.532.6.8.9s.51.563.764.853H6.233a.525.525,0,0,0-.431.269l-3,6.171h23.85l-3-6.171a.525.525,0,0,0-.431-.269H18.59c.254-.29.51-.574.764-.853.269-.3.539-.593.8-.9a.544.544,0,0,1,.359-.165h3.9A.525.525,0,0,1,24.843,79.622ZM21.39,73.257c0,5.09-4.237,6.044-6.23,10.935a.476.476,0,0,1-.883,0c-1.8-4.41-5.42-5.619-6.113-9.548a6.816,6.816,0,0,1,5.905-8.026A6.672,6.672,0,0,1,21.39,73.257Zm-3.148,0a3.523,3.523,0,1,0-3.523,3.523A3.523,3.523,0,0,0,18.241,73.257Z" transform="translate(0)" fill="#deb880"/></g></svg>